<?xml version="1.0" encoding="UTF-8" standalone="no"?>
<!-- Created with Inkscape (http://www.inkscape.org/) -->

<svg
   xmlns:dc="http://purl.org/dc/elements/1.1/"
   xmlns:cc="http://creativecommons.org/ns#"
   xmlns:rdf="http://www.w3.org/1999/02/22-rdf-syntax-ns#"
   xmlns:svg="http://www.w3.org/2000/svg"
   xmlns="http://www.w3.org/2000/svg"
   xmlns:sodipodi="http://sodipodi.sourceforge.net/DTD/sodipodi-0.dtd"
   xmlns:inkscape="http://www.inkscape.org/namespaces/inkscape"
   width="75.881828mm"
   height="20.637501mm"
   viewBox="0 0 75.88183 20.637501"
   version="1.1"
   id="svg8"
   inkscape:version="0.92.4 (5da689c313, 2019-01-14)"
   sodipodi:docname="logo.svg"
   inkscape:export-filename="C:\web-projects\jackland-site\img\top-logo.png"
   inkscape:export-xdpi="125"
   inkscape:export-ydpi="125">
  <defs
     id="defs2" />
  <sodipodi:namedview
     id="base"
     pagecolor="#ffffff"
     bordercolor="#666666"
     borderopacity="1.0"
     inkscape:pageopacity="0.0"
     inkscape:pageshadow="2"
     inkscape:zoom="1.9512466"
     inkscape:cx="71.551987"
     inkscape:cy="95.135594"
     inkscape:document-units="mm"
     inkscape:current-layer="layer1"
     showgrid="false"
     inkscape:window-width="1600"
     inkscape:window-height="838"
     inkscape:window-x="-8"
     inkscape:window-y="-8"
     inkscape:window-maximized="1" />
  <metadata
     id="metadata5">
    <rdf:RDF>
      <cc:Work
         rdf:about="">
        <dc:format>image/svg+xml</dc:format>
        <dc:type
           rdf:resource="http://purl.org/dc/dcmitype/StillImage" />
        <dc:title />
      </cc:Work>
    </rdf:RDF>
  </metadata>
  <g
     inkscape:label="Layer 1"
     inkscape:groupmode="layer"
     id="layer1"
     transform="translate(-93.704441,-218.75839)">
    <g
       id="g917">
      <g
         transform="matrix(0.24909087,0,0,0.24909087,70.36352,179.76456)"
         id="g926">
        <path
           inkscape:connector-curvature="0"
           id="path833-1"
           d="m 147.09366,234.27816 c 0.78363,-1.18375 3.47022,-6.84463 3.47022,-7.31205 0,-0.0798 0.084,-0.32422 0.18677,-0.54304 0.17999,-0.38342 0.40207,-1.04259 1.21878,-3.61749 0.52704,-1.66164 1.49844,-5.40399 1.49844,-5.77281 0,-0.16736 0.0536,-0.40436 0.11902,-0.52667 0.14198,-0.2653 0.90345,-4.62343 1.26511,-7.24065 0.67048,-4.85208 0.67032,-4.84786 0.72756,-19.21287 l 0.0538,-13.49832 3.42001,0.0832 c 1.881,0.0457 3.95053,0.0832 4.59896,0.0832 h 1.17896 l -0.001,14.29896 c -0.001,14.61688 -0.0503,16.51677 -0.50719,19.67284 -0.57557,3.9755 -2.10794,8.06658 -4.57171,12.20543 -1.24531,2.09199 -3.11755,4.30674 -6.11256,7.2308 -2.64958,2.58681 -5.30934,4.51093 -6.55985,4.74553 l -0.43344,0.0813 z"
           style="opacity:1;fill:#102564;fill-opacity:1;fill-rule:nonzero;stroke:none;stroke-width:0.69194525;stroke-linecap:round;stroke-linejoin:miter;stroke-miterlimit:4;stroke-dasharray:none;stroke-opacity:1;paint-order:markers fill stroke" />
        <path
           inkscape:connector-curvature="0"
           id="path835-4"
           d="m 107.43599,232.12118 c -1.01892,-0.92636 -3.48721,-3.28028 -4.47242,-4.2652 -0.87202,-0.87175 -1.14453,-1.18707 -1.63683,-1.8939 -0.16929,-0.24305 -0.34266,-0.47032 -0.38528,-0.50504 -0.0834,-0.068 -1.56155,-2.27231 -2.285935,-3.40903 -0.481685,-0.75587 -2.063261,-3.88422 -2.425626,-4.79788 -0.123938,-0.31249 -0.278795,-0.66683 -0.344127,-0.78741 -0.06533,-0.12059 -0.118784,-0.3303 -0.118784,-0.46603 0,-0.13573 -0.05682,-0.2819 -0.12626,-0.32481 -0.06944,-0.0429 -0.12626,-0.21337 -0.12626,-0.37878 0,-0.16541 -0.05682,-0.33587 -0.12626,-0.37878 -0.06944,-0.0429 -0.126261,-0.24178 -0.126261,-0.44191 0,-0.20014 -0.05054,-0.39512 -0.112309,-0.43329 -0.06177,-0.0382 -0.143843,-0.2546 -0.182383,-0.48093 -0.03854,-0.22633 -0.129788,-0.6956 -0.202775,-1.04282 -0.705449,-3.356 -1.117561,-8.54869 -0.971988,-12.24723 0.07863,-1.99763 0.273648,-2.94946 0.720793,-3.51792 l 0.26195,-0.33301 h 14.068845 14.06883 v 3.93098 c 0,2.36986 0.0534,4.13736 0.13441,4.45067 0.47877,1.85115 0.86554,2.58937 1.91732,3.65947 0.70728,0.71959 0.85226,0.93848 0.85226,1.28671 0,0.23079 -0.0568,0.45473 -0.12626,0.49765 -0.0695,0.0429 -0.12626,0.18908 -0.12626,0.32482 0,0.13573 -0.0502,0.34544 -0.11153,0.46602 -0.10343,0.20331 -0.21874,0.47578 -0.5069,1.19776 -0.28838,0.72253 -0.627,1.4498 -1.61939,3.47812 l -1.06854,2.18395 -0.57656,-0.0865 c -1.00941,-0.15137 -2.40422,-1.03815 -3.75534,-2.38754 -0.56903,-0.56832 -2.0011,-2.53088 -2.42841,-3.32801 -0.73909,-1.37875 -1.17048,-2.33603 -1.17048,-2.59739 0,-0.10083 -0.0503,-0.21438 -0.11171,-0.25235 -0.0614,-0.038 -0.14075,-0.22598 -0.17625,-0.4178 -0.33407,-1.80495 -0.47027,-2.45725 -0.5349,-2.56182 -0.0469,-0.0758 -1.81336,-0.12275 -4.62005,-0.12275 -5.38984,0 -5.2892,-0.0204 -5.2892,1.07051 0,0.37689 0.0504,0.81576 0.11204,0.97527 0.0616,0.15952 0.17803,0.60252 0.25869,0.98446 0.57372,2.71667 0.93416,3.85206 1.6775,5.28418 0.19289,0.37163 0.35071,0.75515 0.35071,0.85226 0,0.0971 0.0434,0.17657 0.0965,0.17657 0.0531,0 0.19442,0.21306 0.31413,0.47347 0.44378,0.96541 2.38883,3.94521 2.64417,4.05085 0.056,0.0231 0.10199,0.10837 0.10232,0.18939 3.7e-4,0.081 0.15656,0.31798 0.34721,0.52659 0.19065,0.20861 0.573,0.66053 0.84966,1.00427 1.37817,1.71228 3.31729,3.34263 4.61921,3.88368 0.34504,0.1434 0.6226,0.34124 0.6226,0.44379 0,0.23089 -0.37253,1.02774 -0.62864,1.34467 -0.39884,0.49354 -2.96519,2.91971 -3.71191,3.50914 -1.17072,0.92413 -2.27897,1.63258 -2.81025,1.79646 -0.20994,0.0648 -0.43197,-0.0644 -1.00304,-0.58362 z"
           style="opacity:1;fill:#102564;fill-opacity:1;fill-rule:nonzero;stroke:none;stroke-width:0.69194525;stroke-linecap:round;stroke-linejoin:miter;stroke-miterlimit:4;stroke-dasharray:none;stroke-opacity:1;paint-order:markers fill stroke" />
        <path
           inkscape:connector-curvature="0"
           id="path839-9"
           d="m 124.77575,239.20375 c -1.12938,-0.0773 -2.77659,-0.29948 -3.66045,-0.49384 -1.70133,-0.37412 -3.66446,-1.04364 -3.65452,-1.24637 0.0116,-0.23584 0.63374,-0.84696 1.80413,-1.77209 1.80212,-1.42448 4.77592,-4.62462 6.78838,-7.30506 4.01663,-5.34984 5.8136,-9.22044 8.06948,-17.38136 0.74611,-2.69919 0.95414,-5.47341 1.08453,-14.46326 0.11694,-8.06308 0.0373,-9.52008 -0.54443,-9.95346 -0.28206,-0.21015 -3.40144,-0.2414 -19.986,-0.20021 -19.407646,0.0482 -19.659403,0.0443 -20.266418,-0.31017 l -0.614651,-0.35896 -0.04568,-14.46893 -0.04568,-14.46894 6.458359,-0.11825 c 3.5521,-0.065 17.09179,-0.11825 30.0882,-0.11825 h 23.62984 v 4.82109 4.82109 h -24.88708 c -22.91852,0 -24.90648,0.0233 -25.13215,0.29488 -0.18996,0.22859 -0.25712,1.3018 -0.29869,4.77315 -0.0295,2.46305 -0.006,4.66872 0.0526,4.90149 l 0.10622,0.42322 20.48166,-0.0628 20.48166,-0.0628 -0.003,15.62389 c -0.003,15.89656 -0.0236,16.48497 -0.70349,20.26642 -1.1156,6.20472 -4.10096,13.25351 -8.2809,19.55219 -1.21485,1.83064 -3.8636,5.24692 -4.94341,6.37587 l -1.07469,1.1236 -1.42513,-0.0258 c -0.78383,-0.0142 -2.34918,-0.089 -3.47856,-0.16629 z"
           style="opacity:1;fill:#d9984c;fill-opacity:0.85581396;fill-rule:nonzero;stroke:none;stroke-width:0.97855836;stroke-linecap:round;stroke-linejoin:miter;stroke-miterlimit:4;stroke-dasharray:none;stroke-opacity:1;paint-order:markers fill stroke" />
        <path
           sodipodi:nodetypes="csscsscccsscccsscccccscc"
           inkscape:connector-curvature="0"
           id="path843"
           d="m 129.04069,223.99175 c 2.32732,-4.26306 3.19575,-6.24584 4.84108,-12.36176 1.01519,-3.77362 1.22664,-6.48616 1.27381,-16.34076 0.04,-8.36225 0.025,-8.4934 -1.00549,-8.78702 -0.29463,-0.0839 -9.21414,-0.13057 -19.82115,-0.10361 -19.134452,0.0486 -19.290355,0.0462 -19.909304,-0.3153 l -0.623835,-0.36433 -0.04568,-14.46998 -0.04568,-14.46998 2.707816,-0.11721 c 1.489298,-0.0645 15.028993,-0.1172 30.088203,-0.1172 h 27.38038 v 4.82109 4.82109 l -23.70368,0.0233 c -13.03702,0.0128 -24.30631,0.0731 -25.04287,0.13392 l -1.33919,0.11058 -0.0474,5.04516 -0.0474,5.04515 20.4924,-0.0455 20.49241,-0.0455 0.0536,13.74902 c 0.0728,18.64685 0.42807,22.28554 -4.58404,33.76255 -4.47292,0 -4.62222,0.0263 -11.11397,0.0263 z"
           style="opacity:1;fill:#d9984c;fill-opacity:1;fill-rule:nonzero;stroke:none;stroke-width:0.97855836;stroke-linecap:round;stroke-linejoin:miter;stroke-miterlimit:4;stroke-dasharray:none;stroke-opacity:1;paint-order:markers fill stroke" />
      </g>
      <g
         style="fill:#102564;fill-opacity:1"
         transform="translate(1.5875,0.080981)"
         id="g883">
        <text
           xml:space="preserve"
           style="font-style:normal;font-variant:normal;font-weight:bold;font-stretch:normal;font-size:6.797194px;line-height:1.25;font-family:Cambay;-inkscape-font-specification:'Cambay Bold';text-align:center;letter-spacing:0px;word-spacing:0px;text-anchor:middle;fill:#102564;fill-opacity:1;stroke:none;stroke-width:0.1274474"
           x="141.07933"
           y="236.65161"
           id="text860"><tspan
             sodipodi:role="line"
             x="141.07933"
             y="236.65161"
             style="font-style:normal;font-variant:normal;font-weight:bold;font-stretch:normal;font-family:Cambay;-inkscape-font-specification:'Cambay Bold';fill:#102564;fill-opacity:1;stroke-width:0.1274474"
             id="tspan862">ENGINEERING</tspan></text>
        <text
           id="text873"
           y="229.10458"
           x="141.31212"
           style="font-style:normal;font-variant:normal;font-weight:bold;font-stretch:normal;font-size:10.53864479px;line-height:1.25;font-family:Cambay;-inkscape-font-specification:'Cambay Bold';text-align:center;letter-spacing:0px;word-spacing:0px;text-anchor:middle;fill:#102564;fill-opacity:1;stroke:none;stroke-width:0.19759962"
           xml:space="preserve"><tspan
             id="tspan871"
             style="font-style:normal;font-variant:normal;font-weight:bold;font-stretch:normal;font-family:Cambay;-inkscape-font-specification:'Cambay Bold';fill:#102564;fill-opacity:1;stroke-width:0.19759962"
             y="229.10458"
             x="141.31212"
             sodipodi:role="line">JACKLAND</tspan></text>
      </g>
    </g>
  </g>
</svg>
